<svg width="105" height="105" viewBox="0 0 105 105" fill="none" xmlns="http://www.w3.org/2000/svg">
<path fill-rule="evenodd" clip-rule="evenodd" d="M7.32233 7.32233C0 14.6447 0 26.4298 0 50V55C0 78.5702 0 90.3553 7.32233 97.6777C14.6447 105 26.4298 105 50 105H55C78.5702 105 90.3553 105 97.6777 97.6777C105 90.3553 105 78.5702 105 55V50C105 26.4298 105 14.6447 97.6777 7.32233C90.3553 0 78.5702 0 55 0H50C26.4298 0 14.6447 0 7.32233 7.32233ZM53 28.856C52.7419 28.856 52.4866 28.9093 52.25 29.0125C43.0057 33.0537 34.1879 38.0074 25.9275 43.8C25.6364 44.0042 25.4093 44.2869 25.2728 44.6152C25.1362 44.9436 25.0959 45.304 25.1564 45.6544C25.217 46.0048 25.3759 46.3307 25.6147 46.5942C25.8535 46.8577 26.1622 47.0479 26.505 47.1425C30.4267 48.225 34.293 49.499 38.09 50.96C38.2152 50.3272 38.4708 49.7274 38.8405 49.1989C39.2102 48.6703 39.686 48.2246 40.2375 47.89C44.114 45.5408 48.102 43.3807 52.1875 41.4175C52.6357 41.202 53.1512 41.1734 53.6205 41.338C54.0898 41.5025 54.4745 41.8468 54.69 42.295C54.9055 42.7432 54.9341 43.2587 54.7695 43.728C54.605 44.1973 54.2607 44.582 53.8125 44.7975C49.8355 46.7083 45.9534 48.8108 42.18 51.0975C41.9175 51.255 41.75 51.5475 41.75 51.875V52.435C45.2797 53.9228 48.7392 55.572 52.1175 57.3775C52.3894 57.5228 52.693 57.5988 53.0013 57.5988C53.3096 57.5988 53.6131 57.5228 53.885 57.3775L54.735 56.9275L54.7425 56.9225C62.6222 52.7899 70.921 49.5112 79.4975 47.1425C79.8403 47.0479 80.149 46.8577 80.3878 46.5942C80.6266 46.3307 80.7855 46.0048 80.8461 45.6544C80.9066 45.304 80.8663 44.9436 80.7297 44.6152C80.5932 44.2869 80.3661 44.0042 80.075 43.8C71.8139 38.0072 62.9952 33.0535 53.75 29.0125C53.5134 28.9093 53.2581 28.856 53 28.856ZM55.65 60.6825C61.7907 57.4018 68.2027 54.6566 74.815 52.4775C75.15 56.0125 75.365 59.585 75.4525 63.19C75.4617 63.5672 75.3568 63.9384 75.1517 64.2551C74.9465 64.5718 74.6505 64.8192 74.3025 64.965C67.2157 67.9249 60.4303 71.56 54.04 75.82C53.732 76.0253 53.3701 76.1349 53 76.1349C52.6299 76.1349 52.268 76.0253 51.96 75.82C48.117 73.2578 44.131 70.9217 40.0225 68.8225C40.6497 67.5461 41.1126 66.1953 41.4 64.8025C42.0322 64.5214 42.5743 64.0709 42.9664 63.5008C43.3584 62.9307 43.5851 62.2632 43.6213 61.5723C43.6575 60.8814 43.5019 60.1939 43.1716 59.5859C42.8414 58.9779 42.3493 58.4732 41.75 58.1275V56.515C44.6703 57.7915 47.5392 59.1826 50.35 60.685C51.1654 61.1205 52.0756 61.3483 53 61.3483C53.9244 61.3483 54.8346 61.1205 55.65 60.685V60.6825ZM40.0225 68.8225C39.2045 70.4839 38.1182 71.9993 36.8075 73.3075C36.6358 73.4917 36.4288 73.6395 36.1988 73.742C35.9688 73.8444 35.7206 73.8995 35.4688 73.904C35.217 73.9084 34.967 73.8621 34.7335 73.7678C34.5 73.6735 34.2879 73.5331 34.1099 73.3551C33.9319 73.1771 33.7915 72.965 33.6972 72.7315C33.6029 72.498 33.5566 72.248 33.561 71.9962C33.5655 71.7444 33.6206 71.4962 33.723 71.2662C33.8255 71.0362 33.9733 70.8292 34.1575 70.6575L34.155 70.655C35.205 69.6075 36.0375 68.43 36.655 67.17C37.7819 67.6999 38.8989 68.2496 40.006 68.8141C40.0096 68.8159 40.0131 68.8177 40.0167 68.8195C40.0186 68.8205 40.0206 68.8215 40.0225 68.8225ZM36.6578 67.1693C37.7776 67.6979 38.8889 68.2438 39.9915 68.8067C38.8891 68.2447 37.777 67.6975 36.6575 67.17L36.6578 67.1693ZM36.6578 67.1693C35.0228 66.3975 33.3698 65.6625 31.7 64.965C31.3515 64.8196 31.055 64.5724 30.8494 64.2556C30.6437 63.9389 30.5385 63.5675 30.5475 63.19C30.635 59.585 30.85 56.015 31.185 52.475C33.4809 53.2317 35.7536 54.0571 38 54.95V58.125C37.4598 58.4362 37.0058 58.8772 36.6789 59.408C36.352 59.9389 36.1627 60.5428 36.1279 61.1653C36.0932 61.7877 36.2142 62.409 36.4799 62.9729C36.7457 63.5368 37.1478 64.0256 37.65 64.395C37.4251 65.3448 37.0952 66.277 36.6578 67.1693Z" fill="white"/>
</svg>
