<svg width="105" height="105" viewBox="0 0 105 105" fill="none" xmlns="http://www.w3.org/2000/svg">
<g clip-path="url(#clip0_54_200)">
<path d="M0 50C0 26.4298 0 14.6447 7.32233 7.32233C14.6447 0 26.4298 0 50 0H55C78.5702 0 90.3553 0 97.6777 7.32233C105 14.6447 105 26.4298 105 50V55C105 78.5702 105 90.3553 97.6777 97.6777C90.3553 105 78.5702 105 55 105H50C26.4298 105 14.6447 105 7.32233 97.6777C0 90.3553 0 78.5702 0 55V50Z" fill="white"/>
<path d="M52.25 29.0125C52.4865 28.9093 52.7419 28.856 53 28.856C53.2581 28.856 53.5134 28.9093 53.75 29.0125C62.9951 33.0535 71.8138 38.0072 80.075 43.8C80.3661 44.0042 80.5932 44.2869 80.7297 44.6152C80.8662 44.9436 80.9066 45.304 80.846 45.6544C80.7855 46.0048 80.6266 46.3307 80.3878 46.5942C80.149 46.8577 79.8402 47.0479 79.4975 47.1425C70.9209 49.5113 62.6221 52.7899 54.7425 56.9225L54.735 56.9275L53.885 57.3775C53.6131 57.5228 53.3095 57.5988 53.0012 57.5988C52.6929 57.5988 52.3894 57.5228 52.1175 57.3775C48.7392 55.5721 45.2797 53.9228 41.75 52.435V51.875C41.75 51.5475 41.9175 51.255 42.18 51.0975C45.9534 48.8108 49.8355 46.7083 53.8125 44.7975C54.2607 44.582 54.6049 44.1973 54.7695 43.728C54.9341 43.2587 54.9055 42.7432 54.69 42.295C54.4745 41.8468 54.0898 41.5025 53.6205 41.338C53.1511 41.1734 52.6357 41.202 52.1875 41.4175C48.1019 43.3807 44.1139 45.5408 40.2375 47.89C39.686 48.2246 39.2102 48.6703 38.8405 49.1989C38.4707 49.7275 38.2151 50.3272 38.09 50.96C34.293 49.499 30.4267 48.225 26.505 47.1425C26.1622 47.0479 25.8534 46.8577 25.6147 46.5942C25.3759 46.3307 25.2169 46.0048 25.1564 45.6544C25.0959 45.304 25.1362 44.9436 25.2727 44.6152C25.4093 44.2869 25.6363 44.0042 25.9275 43.8C34.1878 38.0074 43.0057 33.0537 52.25 29.0125Z" fill="black"/>
<path d="M55.65 60.6825C61.7907 57.4018 68.2028 54.6566 74.815 52.4775C75.15 56.0125 75.365 59.585 75.4525 63.19C75.4617 63.5672 75.3569 63.9384 75.1517 64.2551C74.9465 64.5718 74.6506 64.8192 74.3025 64.965C67.2158 67.9249 60.4303 71.56 54.04 75.82C53.732 76.0253 53.3702 76.1349 53 76.1349C52.6299 76.1349 52.268 76.0253 51.96 75.82C45.5706 71.5601 38.7859 67.925 31.7 64.965C31.3515 64.8196 31.055 64.5724 30.8494 64.2557C30.6438 63.9389 30.5386 63.5675 30.5475 63.19C30.635 59.585 30.85 56.015 31.185 52.475C33.4809 53.2317 35.7536 54.0571 38 54.95V58.125C37.4599 58.4362 37.0058 58.8772 36.6789 59.408C36.3521 59.9389 36.1627 60.5428 36.1279 61.1653C36.0932 61.7877 36.2142 62.409 36.4799 62.9729C36.7457 63.5368 37.1479 64.0256 37.65 64.395C37.425 65.345 37.095 66.2775 36.6575 67.17C37.7875 67.7025 38.91 68.255 40.0225 68.8225C40.6498 67.5461 41.1126 66.1953 41.4 64.8025C42.0322 64.5214 42.5744 64.0709 42.9664 63.5008C43.3584 62.9307 43.5851 62.2632 43.6213 61.5723C43.6576 60.8814 43.5019 60.1939 43.1717 59.5859C42.8414 58.9779 42.3494 58.4732 41.75 58.1275V56.515C44.6703 57.7916 47.5392 59.1826 50.35 60.685C51.1654 61.1205 52.0756 61.3483 53 61.3483C53.9244 61.3483 54.8346 61.1205 55.65 60.685V60.6825Z" fill="black"/>
<path d="M34.1549 70.655C35.2049 69.6075 36.0374 68.43 36.6549 67.17C37.7874 67.7025 38.9099 68.255 40.0224 68.8225C39.2044 70.484 38.1182 71.9993 36.8074 73.3075C36.6358 73.4917 36.4288 73.6395 36.1988 73.742C35.9688 73.8444 35.7205 73.8995 35.4687 73.904C35.217 73.9084 34.9669 73.8621 34.7334 73.7678C34.5 73.6735 34.2879 73.5332 34.1098 73.3551C33.9318 73.1771 33.7914 72.965 33.6971 72.7315C33.6028 72.498 33.5565 72.248 33.561 71.9962C33.5654 71.7444 33.6205 71.4962 33.723 71.2662C33.8255 71.0362 33.9732 70.8292 34.1574 70.6575L34.1549 70.655Z" fill="black"/>
</g>
<defs>
<clipPath id="clip0_54_200">
<rect width="105" height="105" fill="white"/>
</clipPath>
</defs>
</svg>
