<svg width="819" height="105" viewBox="0 0 819 105" fill="none" xmlns="http://www.w3.org/2000/svg">
<g clip-path="url(#clip0_17_2)">
<path d="M128 93.9439V10.1589H189.797V26.4019H146.56V43.4673H189.797V59.7103H146.56V77.7009L189.797 77.3925V93.6355L128 93.9439Z" fill="black"/>
<path d="M203.187 93.9439V10.1589H235.411C262.945 10.1589 279.975 27.3271 279.975 52.1028C279.975 76.8785 262.945 93.9439 235.411 93.9439H203.187ZM221.747 77.3925H235.717C251.625 77.3925 261.415 68.243 261.415 52.1028C261.415 35.9626 251.625 26.7103 235.717 26.7103H221.747V77.3925Z" fill="black"/>
<path d="M290.101 56.8318V10.1589H308.661V56.8318C308.661 70.1963 316.003 79.1402 328.138 79.1402C340.273 79.1402 347.616 70.1963 347.616 56.8318V10.1589H366.175V56.8318C366.175 80.5794 350.981 96 328.138 96C305.296 96 290.101 80.5794 290.101 56.8318Z" fill="black"/>
<path d="M379.852 93.9439V10.1589H415.951C434.409 10.1589 444.81 19.8224 444.81 35.1402C444.81 41.1028 440.833 47.8879 435.123 50.0467C443.077 52.6168 448.685 60.4299 448.685 68.5514C448.685 84.0748 437.672 93.9439 419.01 93.9439H379.852ZM398.411 44.0841H415.135C422.172 44.0841 426.251 41 426.251 35.1402C426.251 29.2804 422.172 26.0935 415.135 26.0935H398.411V44.0841ZM398.411 78.0093H418.195C425.537 78.0093 430.126 74.7196 430.126 68.5514C430.126 62.3832 425.537 59.0935 418.195 59.0935H398.411V78.0093Z" fill="black"/>
<path d="M530.595 93.9439H509.078L492.966 67.5234H478.179V93.9439H459.62V10.1589H493.068C514.177 10.1589 526.516 21.4673 526.516 38.8411C526.516 50.3551 521.111 59.1963 511.321 63.8224L530.595 93.9439ZM478.179 26.7103V50.972H492.252C502.042 50.972 507.956 46.757 507.956 38.8411C507.956 30.9252 502.042 26.7103 492.252 26.7103H478.179Z" fill="black"/>
<path d="M539.189 10.1589H557.748V93.9439H539.189V10.1589Z" fill="black"/>
<path d="M572.45 93.9439V10.1589H604.674C632.208 10.1589 649.238 27.3271 649.238 52.1028C649.238 76.8785 632.208 93.9439 604.674 93.9439H572.45ZM591.01 77.3925H604.98C620.889 77.3925 630.678 68.243 630.678 52.1028C630.678 35.9626 620.889 26.7103 604.98 26.7103H591.01V77.3925Z" fill="black"/>
<path d="M701.174 8C722.895 8 738.599 20.3364 743.392 36.0654H722.997C719.53 29.8972 711.678 25.1682 701.582 25.1682C686.49 25.1682 675.273 36.3738 675.273 52C675.273 67.729 686.49 79.1402 701.582 79.1402C714.533 79.1402 723.507 71.1215 725.445 62.8972H700.053V47.0654H745.228V52C745.228 77.3925 726.362 96 701.174 96C675.579 96 656.713 77.3925 656.713 52C656.713 26.6075 675.579 8 701.174 8Z" fill="black"/>
<path d="M756.285 93.9439V10.1589H818.082V26.4019H774.845V43.4673H818.082V59.7103H774.845V77.7009H818.082V93.9439H756.285Z" fill="black"/>
<path fill-rule="evenodd" clip-rule="evenodd" d="M7.32233 7.32233C0 14.6447 0 26.4298 0 50V55C0 78.5702 0 90.3553 7.32233 97.6777C14.6447 105 26.4298 105 50 105H55C78.5702 105 90.3553 105 97.6777 97.6777C105 90.3553 105 78.5702 105 55V50C105 26.4298 105 14.6447 97.6777 7.32233C90.3553 0 78.5702 0 55 0H50C26.4298 0 14.6447 0 7.32233 7.32233ZM56.2331 69.6322V37.507C60.0719 34.4288 64.8569 32.743 69.8013 32.75H69.8052C71.6768 32.75 73.4896 32.9853 75.2162 33.4275V66.5532C73.4384 66.1942 71.6261 66.0132 69.806 66.015C65.0098 66.0089 60.3334 67.2727 56.2331 69.6322ZM50.7331 37.507V69.6339C46.7383 67.3333 42.1031 66.0155 37.1641 66.015C35.3427 66.013 33.5291 66.1939 31.75 66.5532V33.4275C33.4767 32.9853 35.2894 32.75 37.161 32.75H37.1648C42.1092 32.7432 46.8942 34.429 50.7331 37.507ZM69.8073 27.25C63.9 27.242 58.1743 29.1607 53.483 32.6803C48.7918 29.161 43.0663 27.2423 37.1591 27.25C33.9825 27.2502 30.9254 27.7942 28.0824 28.8004C26.9841 29.1892 26.25 30.2278 26.25 31.3928V70.1578C26.25 71.0502 26.6831 71.8871 27.4115 72.4026C28.14 72.9181 29.0734 73.048 29.915 72.7511C32.2415 71.9303 34.6909 71.5122 37.158 71.515H37.161C42.7287 71.515 47.8028 73.6063 51.649 77.049C52.694 77.9844 54.2754 77.9836 55.3194 77.0471C59.2981 73.4781 64.4566 71.5076 69.8014 71.515H69.8082C72.2753 71.5122 74.7248 71.9303 77.0513 72.7511C77.8929 73.048 78.8262 72.9181 79.5547 72.4026C80.2832 71.8871 80.7162 71.0502 80.7162 70.1578V31.3928C80.7162 30.2278 79.9821 29.1892 78.8838 28.8004C76.0409 27.7942 72.9839 27.2503 69.8073 27.25Z" fill="black"/>
</g>
<defs>
<clipPath id="clip0_17_2">
<rect width="819" height="105" fill="white"/>
</clipPath>
</defs>
</svg>
