<svg width="819" height="105" viewBox="0 0 819 105" fill="none" xmlns="http://www.w3.org/2000/svg">
<g clip-path="url(#clip0_20_29)">
<path d="M128 94.9439V11.1589H189.797V27.4019H146.56V44.4673H189.797V60.7103H146.56V78.7009H189.797V94.9439H128Z" fill="white"/>
<path d="M203.187 94.9439V11.1589H235.411C262.945 11.1589 279.975 28.3271 279.975 53.1028C279.975 77.8785 262.945 94.9439 235.411 94.9439H203.187ZM221.747 78.3925H235.717C251.625 78.3925 261.415 69.243 261.415 53.1028C261.415 36.9626 251.625 27.7103 235.717 27.7103H221.747V78.3925Z" fill="white"/>
<path d="M290.101 57.8318V11.1589H308.661V57.8318C308.661 71.1963 316.003 80.1402 328.138 80.1402C340.273 80.1402 347.616 71.1963 347.616 57.8318V11.1589H366.175V57.8318C366.175 81.5794 350.981 97 328.138 97C305.296 97 290.101 81.5794 290.101 57.8318Z" fill="white"/>
<path d="M379.852 94.9439V11.1589H415.951C434.409 11.1589 444.81 20.8224 444.81 36.1402C444.81 42.1028 440.833 48.8879 435.123 51.0467C443.077 53.6168 448.685 61.4299 448.685 69.5514C448.685 85.0748 437.672 94.9439 419.01 94.9439H379.852ZM398.411 45.0841H415.135C422.172 45.0841 426.251 42 426.251 36.1402C426.251 30.2804 422.172 27.0935 415.135 27.0935H398.411V45.0841ZM398.411 79.0093H418.195C425.537 79.0093 430.126 75.7196 430.126 69.5514C430.126 63.3832 425.537 60.0935 418.195 60.0935H398.411V79.0093Z" fill="white"/>
<path d="M530.595 94.9439H509.078L492.966 68.5234H478.179V94.9439H459.62V11.1589H493.068C514.177 11.1589 526.516 22.4673 526.516 39.8411C526.516 51.3551 521.111 60.1963 511.321 64.8224L530.595 94.9439ZM478.179 27.7103V51.972H492.252C502.042 51.972 507.956 47.757 507.956 39.8411C507.956 31.9252 502.042 27.7103 492.252 27.7103H478.179Z" fill="white"/>
<path d="M539.189 11.1589H557.748V94.9439H539.189V11.1589Z" fill="white"/>
<path d="M572.45 94.9439V11.1589H604.674C632.208 11.1589 649.238 28.3271 649.238 53.1028C649.238 77.8785 632.208 94.9439 604.674 94.9439H572.45ZM591.01 78.3925H604.98C620.889 78.3925 630.678 69.243 630.678 53.1028C630.678 36.9626 620.889 27.7103 604.98 27.7103H591.01V78.3925Z" fill="white"/>
<path d="M701.174 9C722.895 9 738.599 21.3364 743.392 37.0654H722.997C719.53 30.8972 711.678 26.1682 701.582 26.1682C686.49 26.1682 675.273 37.3738 675.273 53C675.273 68.729 686.49 80.1402 701.582 80.1402C714.533 80.1402 723.507 72.1215 725.445 63.8972H700.053V48.0654H745.228V53C745.228 78.3925 726.362 97 701.174 97C675.579 97 656.713 78.3925 656.713 53C656.713 27.6075 675.579 9 701.174 9Z" fill="white"/>
<path d="M756.285 94.9439V11.1589H818.082V27.4019H774.845V44.4673H818.082V60.7103H774.845V78.7009H818.082V94.9439H756.285Z" fill="white"/>
<path fill-rule="evenodd" clip-rule="evenodd" d="M7.32233 8.32233C0 15.6447 0 27.4298 0 51V56C0 79.5702 0 91.3553 7.32233 98.6777C14.6447 106 26.4298 106 50 106H55C78.5702 106 90.3553 106 97.6777 98.6777C105 91.3553 105 79.5702 105 56V51C105 27.4298 105 15.6447 97.6777 8.32233C90.3553 1 78.5702 1 55 1H50C26.4298 1 14.6447 1 7.32233 8.32233ZM56.2331 70.6322V38.507C60.0719 35.4288 64.8569 33.743 69.8013 33.75H69.8052C71.6768 33.75 73.4896 33.9853 75.2162 34.4275V67.5532C73.4384 67.1942 71.6261 67.0132 69.806 67.015C65.0098 67.0089 60.3334 68.2727 56.2331 70.6322ZM50.7331 38.507V70.6339C46.7383 68.3333 42.1031 67.0155 37.1641 67.015C35.3427 67.013 33.5291 67.1939 31.75 67.5532V34.4275C33.4767 33.9853 35.2894 33.75 37.161 33.75H37.1648C42.1092 33.7432 46.8942 35.429 50.7331 38.507ZM69.8073 28.25C63.9 28.242 58.1743 30.1607 53.483 33.6803C48.7918 30.161 43.0663 28.2423 37.1591 28.25C33.9825 28.2502 30.9254 28.7942 28.0824 29.8004C26.9841 30.1892 26.25 31.2278 26.25 32.3928V71.1578C26.25 72.0502 26.6831 72.8871 27.4115 73.4026C28.14 73.9181 29.0734 74.048 29.915 73.7511C32.2415 72.9303 34.6909 72.5122 37.158 72.515H37.161C42.7287 72.515 47.8028 74.6063 51.649 78.049C52.694 78.9844 54.2754 78.9836 55.3194 78.0471C59.2981 74.4781 64.4566 72.5076 69.8014 72.515H69.8082C72.2753 72.5122 74.7248 72.9303 77.0513 73.7511C77.8929 74.048 78.8262 73.9181 79.5547 73.4026C80.2832 72.8871 80.7162 72.0502 80.7162 71.1578V32.3928C80.7162 31.2278 79.9821 30.1892 78.8838 29.8004C76.0409 28.7942 72.9839 28.2503 69.8073 28.25Z" fill="white"/>
</g>
<defs>
<clipPath id="clip0_20_29">
<rect width="819" height="105" fill="white"/>
</clipPath>
</defs>
</svg>
