<svg width="105" height="105" viewBox="0 0 105 105" fill="none" xmlns="http://www.w3.org/2000/svg">
<path fill-rule="evenodd" clip-rule="evenodd" d="M7.32233 7.32233C0 14.6447 0 26.4298 0 50V55C0 78.5702 0 90.3553 7.32233 97.6777C14.6447 105 26.4298 105 50 105H55C78.5702 105 90.3553 105 97.6777 97.6777C105 90.3553 105 78.5702 105 55V50C105 26.4298 105 14.6447 97.6777 7.32233C90.3553 0 78.5702 0 55 0H50C26.4298 0 14.6447 0 7.32233 7.32233ZM26.659 28.659C26.2371 29.081 26 29.6533 26 30.25C26 30.8467 26.2371 31.419 26.659 31.841C27.081 32.2629 27.6533 32.5 28.25 32.5H29V58.75C29 60.938 29.8692 63.0365 31.4164 64.5836C32.9635 66.1308 35.062 67 37.25 67H40.469L38.072 76.18C37.9208 76.7576 38.0053 77.3717 38.3069 77.887C38.6084 78.4024 39.1024 78.7768 39.68 78.928C40.2576 79.0792 40.8717 78.9947 41.387 78.6931C41.9024 78.3916 42.2768 77.8976 42.428 77.32L42.77 76H63.23L63.572 77.32C63.7232 77.8976 64.0976 78.3916 64.613 78.6931C65.1283 78.9947 65.7424 79.0792 66.32 78.928C66.8976 78.7768 67.3916 78.4024 67.6931 77.887C67.9947 77.3717 68.0792 76.7576 67.928 76.18L65.534 67H68.75C70.938 67 73.0365 66.1308 74.5836 64.5836C76.1308 63.0365 77 60.938 77 58.75V32.5H77.75C78.3467 32.5 78.919 32.2629 79.341 31.841C79.7629 31.419 80 30.8467 80 30.25C80 29.6533 79.7629 29.081 79.341 28.659C78.919 28.2371 78.3467 28 77.75 28H28.25C27.6533 28 27.081 28.2371 26.659 28.659ZM43.946 71.5L45.119 67H60.881L62.057 71.5H43.946ZM67.9763 41.8847C68.0748 41.2962 67.9354 40.6928 67.589 40.207C67.4176 39.9663 67.1975 39.7617 66.9471 39.6049C66.6966 39.448 66.4178 39.3421 66.1264 39.2931C65.835 39.244 65.5368 39.2529 65.2488 39.3191C64.9608 39.3853 64.6887 39.5076 64.448 39.679C61.0594 42.0994 57.9217 44.8531 55.082 47.899L50.09 42.91C49.6681 42.4886 49.0963 42.252 48.5 42.252C47.9037 42.252 47.3319 42.4886 46.91 42.91L38.66 51.16C38.445 51.3675 38.2735 51.6157 38.1554 51.8901C38.0374 52.1646 37.9752 52.4598 37.9724 52.7585C37.9697 53.0573 38.0265 53.3536 38.1395 53.6301C38.2525 53.9067 38.4194 54.158 38.6306 54.3694C38.8418 54.5807 39.0929 54.7479 39.3694 54.8612C39.6458 54.9744 39.9421 55.0315 40.2408 55.029C40.5396 55.0266 40.8349 54.9647 41.1094 54.8469C41.384 54.7291 41.6323 54.5578 41.84 54.343L48.5 47.683L53.579 52.759C53.7977 52.9773 54.0589 53.1482 54.3465 53.2611C54.6341 53.374 54.9419 53.4264 55.2506 53.4151C55.5594 53.4039 55.8625 53.3292 56.1411 53.1956C56.4197 53.0621 56.6678 52.8726 56.87 52.639C59.886 49.1464 63.3082 46.0263 67.064 43.345C67.5497 42.9985 67.8778 42.4732 67.9763 41.8847Z" fill="white"/>
</svg>
