<svg width="105" height="105" viewBox="0 0 105 105" fill="none" xmlns="http://www.w3.org/2000/svg">
<path fill-rule="evenodd" clip-rule="evenodd" d="M7.32233 7.32233C0 14.6447 0 26.4298 0 50V55C0 78.5702 0 90.3553 7.32233 97.6777C14.6447 105 26.4298 105 50 105H55C78.5702 105 90.3553 105 97.6777 97.6777C105 90.3553 105 78.5702 105 55V50C105 26.4298 105 14.6447 97.6777 7.32233C90.3553 0 78.5702 0 55 0H50C26.4298 0 14.6447 0 7.32233 7.32233ZM67.9936 30.0556C67.968 29.761 67.8845 29.4743 67.748 29.212C67.6118 28.9495 67.4253 28.7194 67.1989 28.529C66.9726 28.3386 66.711 28.1948 66.429 28.1056C66.147 28.0165 65.8503 27.9838 65.5556 28.0094C65.261 28.035 64.9743 28.1185 64.712 28.255L33.5 44.485V39.25C33.5 38.6533 33.2629 38.081 32.841 37.659C32.419 37.2371 31.8467 37 31.25 37C30.6533 37 30.081 37.2371 29.659 37.659C29.2371 38.081 29 38.6533 29 39.25V46.825L27.212 47.755C26.7094 48.0193 26.3254 48.4638 26.1368 48.9994C25.9483 49.535 25.9693 50.1221 26.1955 50.6429C26.4217 51.1637 26.8365 51.5797 27.3567 51.8075C27.8768 52.0353 28.4638 52.058 29 51.871V71.5H28.25C27.6533 71.5 27.081 71.7371 26.659 72.159C26.2371 72.581 26 73.1533 26 73.75C26 74.3467 26.2371 74.919 26.659 75.341C27.081 75.7629 27.6533 76 28.25 76H38.75C39.3467 76 39.919 75.7629 40.341 75.341C40.7629 74.919 41 74.3467 41 73.75V63.25C41 62.6533 41.2371 62.081 41.659 61.659C42.081 61.2371 42.6533 61 43.25 61H50.72C51.3167 61 51.889 61.2371 52.311 61.659C52.7329 62.081 52.97 62.6533 52.97 63.25V73.75C52.97 74.3467 53.2071 74.919 53.629 75.341C54.051 75.7629 54.6233 76 55.22 76H62C62.7957 76 63.5587 75.6839 64.1213 75.1213C64.6839 74.5587 65 73.7956 65 73V33.178L66.788 32.248C67.0505 32.1118 67.2836 31.9253 67.474 31.6989C67.6644 31.4726 67.8082 31.211 67.8974 30.929C67.9865 30.647 68.0192 30.3503 67.9936 30.0556ZM71.6772 47.3828C71.2904 47.396 70.9135 47.5087 70.583 47.71C70.2529 47.9102 69.9799 48.192 69.7903 48.5283C69.6006 48.8645 69.5006 49.2439 69.5 49.63V73.75C69.5 74.3467 69.7371 74.919 70.159 75.341C70.581 75.7629 71.1533 76 71.75 76H77.75C78.3467 76 78.919 75.7629 79.341 75.341C79.7629 74.919 80 74.3467 80 73.75C80 73.1533 79.7629 72.581 79.341 72.159C78.919 71.7371 78.3467 71.5 77.75 71.5H77V54.871C77.5362 55.0579 78.1232 55.0353 78.6433 54.8075C79.1635 54.5797 79.5783 54.1637 79.8045 53.6429C80.0307 53.1221 80.0517 52.535 79.8632 51.9994C79.6746 51.4638 79.2906 51.0193 78.788 50.755L72.791 47.635C72.4476 47.4566 72.0639 47.3697 71.6772 47.3828Z" fill="white"/>
</svg>
