<svg width="105" height="105" viewBox="0 0 105 105" fill="none" xmlns="http://www.w3.org/2000/svg">
<path fill-rule="evenodd" clip-rule="evenodd" d="M7.32233 7.32233C0 14.6447 0 26.4298 0 50V55C0 78.5702 0 90.3553 7.32233 97.6777C14.6447 105 26.4298 105 50 105H55C78.5702 105 90.3553 105 97.6777 97.6777C105 90.3553 105 78.5702 105 55V50C105 26.4298 105 14.6447 97.6777 7.32233C90.3553 0 78.5702 0 55 0H50C26.4298 0 14.6447 0 7.32233 7.32233ZM46.6289 33.6282C46.3037 33.3829 45.9074 33.2501 45.5 33.25C45.0926 33.2501 44.6963 33.3829 44.3711 33.6282C44.0459 33.8736 43.8094 34.2183 43.6975 34.61L41.665 41.725C41.2274 43.2573 40.4064 44.6527 39.2796 45.7796C38.1527 46.9064 36.7573 47.7274 35.225 48.165L28.11 50.1975C27.7185 50.3096 27.3742 50.5462 27.1291 50.8714C26.8839 51.1966 26.7514 51.5928 26.7514 52C26.7514 52.4072 26.8839 52.8034 27.1291 53.1286C27.3742 53.4538 27.7185 53.6904 28.11 53.8025L35.225 55.835C36.7573 56.2726 38.1527 57.0936 39.2796 58.2204C40.4064 59.3473 41.2274 60.7427 41.665 62.275L43.6975 69.39C43.8096 69.7815 44.0462 70.1258 44.3714 70.3709C44.6966 70.6161 45.0928 70.7486 45.5 70.7486C45.9072 70.7486 46.3034 70.6161 46.6286 70.3709C46.9538 70.1258 47.1904 69.7815 47.3025 69.39L49.335 62.275C49.7726 60.7427 50.5936 59.3473 51.7204 58.2204C52.8473 57.0936 54.2427 56.2726 55.775 55.835L62.89 53.8025C63.2815 53.6904 63.6258 53.4538 63.8709 53.1286C64.1161 52.8034 64.2486 52.4072 64.2486 52C64.2486 51.5928 64.1161 51.1966 63.8709 50.8714C63.6258 50.5462 63.2815 50.3096 62.89 50.1975L55.775 48.165C54.2427 47.7274 52.8473 46.9064 51.7204 45.7796C50.5936 44.6527 49.7726 43.2573 49.335 41.725L47.3025 34.61C47.1906 34.2183 46.9541 33.8736 46.6289 33.6282ZM69.1544 26.1467C68.8246 25.8894 68.4183 25.7498 68 25.75C67.5817 25.7498 67.1754 25.8894 66.8456 26.1467C66.5158 26.404 66.2815 26.7642 66.18 27.17L65.535 29.76C65.2465 30.9139 64.6499 31.9678 63.8088 32.8088C62.9678 33.6499 61.9139 34.2465 60.76 34.535L58.17 35.18C57.7634 35.2807 57.4023 35.5146 57.1442 35.8445C56.886 36.1744 56.7458 36.5812 56.7458 37C56.7458 37.4188 56.886 37.8256 57.1442 38.1555C57.4023 38.4854 57.7634 38.7193 58.17 38.82L60.76 39.465C61.9139 39.7535 62.9678 40.3501 63.8088 41.1912C64.6499 42.0322 65.2465 43.0861 65.535 44.24L66.18 46.83C66.2807 47.2366 66.5146 47.5977 66.8445 47.8558C67.1744 48.114 67.5812 48.2542 68 48.2542C68.4189 48.2542 68.8256 48.114 69.1555 47.8558C69.4854 47.5977 69.7193 47.2366 69.82 46.83L70.465 44.24C71.055 41.89 72.89 40.055 75.24 39.465L77.83 38.82C78.2366 38.7193 78.5977 38.4854 78.8558 38.1555C79.114 37.8256 79.2542 37.4188 79.2542 37C79.2542 36.5812 79.114 36.1744 78.8558 35.8445C78.5977 35.5146 78.2366 35.2807 77.83 35.18L75.24 34.535C72.89 33.945 71.055 32.11 70.465 29.76L69.82 27.17C69.7185 26.7642 69.4842 26.404 69.1544 26.1467ZM65.3472 59.8537C65.0277 59.6235 64.6438 59.4998 64.25 59.5C63.8566 59.5003 63.4733 59.6243 63.1543 59.8545C62.8353 60.0846 62.5968 60.4093 62.4725 60.7825L61.485 63.74C61.1125 64.86 60.2325 65.735 59.115 66.11L56.1575 67.0975C55.7851 67.2225 55.4614 67.4614 55.232 67.7803C55.0026 68.0992 54.8793 68.4822 54.8793 68.875C54.8793 69.2678 55.0026 69.6508 55.232 69.9697C55.4614 70.2886 55.7851 70.5275 56.1575 70.6525L59.115 71.64C59.6668 71.8242 60.1682 72.1341 60.5795 72.5455C60.9908 72.9568 61.3008 73.4582 61.485 74.01L62.4725 76.9675C62.5975 77.3399 62.8364 77.6637 63.1553 77.893C63.4742 78.1224 63.8572 78.2457 64.25 78.2457C64.6428 78.2457 65.0258 78.1224 65.3447 77.893C65.6636 77.6637 65.9025 77.3399 66.0275 76.9675L67.015 74.01C67.3875 72.89 68.2675 72.015 69.385 71.64L72.3425 70.6525C72.7149 70.5275 73.0387 70.2886 73.268 69.9697C73.4974 69.6508 73.6207 69.2678 73.6207 68.875C73.6207 68.4822 73.4974 68.0992 73.268 67.7803C73.0387 67.4614 72.7149 67.2225 72.3425 67.0975L69.385 66.11C68.265 65.7375 67.39 64.8575 67.015 63.74L66.03 60.7825C65.9056 60.4089 65.6666 60.0839 65.3472 59.8537Z" fill="white"/>
</svg>
