<svg width="105" height="105" viewBox="0 0 105 105" fill="none" xmlns="http://www.w3.org/2000/svg">
<g clip-path="url(#clip0_54_206)">
<path d="M0 50C0 26.4298 0 14.6447 7.32233 7.32233C14.6447 0 26.4298 0 50 0H55C78.5702 0 90.3553 0 97.6777 7.32233C105 14.6447 105 26.4298 105 50V55C105 78.5702 105 90.3553 97.6777 97.6777C90.3553 105 78.5702 105 55 105H50C26.4298 105 14.6447 105 7.32233 97.6777C0 90.3553 0 78.5702 0 55V50Z" fill="white"/>
<path fill-rule="evenodd" clip-rule="evenodd" d="M45.5 33.25C45.9074 33.2501 46.3037 33.3829 46.6289 33.6282C46.9541 33.8736 47.1906 34.2183 47.3025 34.61L49.335 41.725C49.7726 43.2573 50.5936 44.6527 51.7204 45.7796C52.8472 46.9064 54.2427 47.7274 55.775 48.165L62.89 50.1975C63.2815 50.3096 63.6258 50.5462 63.8709 50.8714C64.1161 51.1966 64.2486 51.5928 64.2486 52C64.2486 52.4072 64.1161 52.8034 63.8709 53.1286C63.6258 53.4538 63.2815 53.6904 62.89 53.8025L55.775 55.835C54.2427 56.2726 52.8472 57.0936 51.7204 58.2204C50.5936 59.3473 49.7726 60.7427 49.335 62.275L47.3025 69.39C47.1903 69.7815 46.9538 70.1258 46.6286 70.3709C46.3034 70.6161 45.9072 70.7487 45.5 70.7487C45.0928 70.7487 44.6966 70.6161 44.3714 70.3709C44.0462 70.1258 43.8096 69.7815 43.6975 69.39L41.665 62.275C41.2274 60.7427 40.4064 59.3473 39.2796 58.2204C38.1527 57.0936 36.7573 56.2726 35.225 55.835L28.11 53.8025C27.7185 53.6904 27.3742 53.4538 27.129 53.1286C26.8839 52.8034 26.7513 52.4072 26.7513 52C26.7513 51.5928 26.8839 51.1966 27.129 50.8714C27.3742 50.5462 27.7185 50.3096 28.11 50.1975L35.225 48.165C36.7573 47.7274 38.1527 46.9064 39.2796 45.7796C40.4064 44.6527 41.2274 43.2573 41.665 41.725L43.6975 34.61C43.8094 34.2183 44.0458 33.8736 44.3711 33.6282C44.6963 33.3829 45.0926 33.2501 45.5 33.25ZM68 25.75C68.4183 25.7498 68.8246 25.8894 69.1544 26.1467C69.4842 26.404 69.7185 26.7642 69.82 27.17L70.465 29.76C71.055 32.11 72.89 33.945 75.24 34.535L77.83 35.18C78.2366 35.2807 78.5977 35.5146 78.8558 35.8445C79.1139 36.1744 79.2542 36.5811 79.2542 37C79.2542 37.4189 79.1139 37.8256 78.8558 38.1555C78.5977 38.4854 78.2366 38.7193 77.83 38.82L75.24 39.465C72.89 40.055 71.055 41.89 70.465 44.24L69.82 46.83C69.7193 47.2366 69.4854 47.5977 69.1555 47.8558C68.8256 48.114 68.4188 48.2542 68 48.2542C67.5811 48.2542 67.1744 48.114 66.8445 47.8558C66.5146 47.5977 66.2807 47.2366 66.18 46.83L65.535 44.24C65.2465 43.0861 64.6499 42.0322 63.8088 41.1912C62.9677 40.3501 61.9139 39.7535 60.76 39.465L58.17 38.82C57.7634 38.7193 57.4023 38.4854 57.1442 38.1555C56.886 37.8256 56.7458 37.4189 56.7458 37C56.7458 36.5811 56.886 36.1744 57.1442 35.8445C57.4023 35.5146 57.7634 35.2807 58.17 35.18L60.76 34.535C61.9139 34.2465 62.9677 33.6499 63.8088 32.8088C64.6499 31.9678 65.2465 30.9139 65.535 29.76L66.18 27.17C66.2815 26.7642 66.5158 26.404 66.8456 26.1467C67.1753 25.8894 67.5817 25.7498 68 25.75ZM64.25 59.5C64.6438 59.4998 65.0276 59.6235 65.3471 59.8537C65.6666 60.0839 65.9056 60.4089 66.03 60.7825L67.015 63.74C67.39 64.8575 68.265 65.7375 69.385 66.11L72.3425 67.0975C72.7149 67.2225 73.0386 67.4614 73.268 67.7803C73.4973 68.0992 73.6207 68.4822 73.6207 68.875C73.6207 69.2678 73.4973 69.6508 73.268 69.9697C73.0386 70.2886 72.7149 70.5275 72.3425 70.6525L69.385 71.64C68.2675 72.015 67.3875 72.89 67.015 74.01L66.0275 76.9675C65.9025 77.3399 65.6636 77.6636 65.3447 77.893C65.0257 78.1224 64.6428 78.2457 64.25 78.2457C63.8572 78.2457 63.4742 78.1224 63.1553 77.893C62.8364 77.6636 62.5975 77.3399 62.4725 76.9675L61.485 74.01C61.3008 73.4582 60.9908 72.9568 60.5795 72.5455C60.1682 72.1341 59.6668 71.8242 59.115 71.64L56.1575 70.6525C55.7851 70.5275 55.4613 70.2886 55.232 69.9697C55.0026 69.6508 54.8792 69.2678 54.8792 68.875C54.8792 68.4822 55.0026 68.0992 55.232 67.7803C55.4613 67.4614 55.7851 67.2225 56.1575 67.0975L59.115 66.11C60.2325 65.735 61.1125 64.86 61.485 63.74L62.4725 60.7825C62.5968 60.4093 62.8353 60.0846 63.1543 59.8545C63.4733 59.6243 63.8566 59.5003 64.25 59.5Z" fill="black"/>
</g>
<defs>
<clipPath id="clip0_54_206">
<rect width="105" height="105" fill="white"/>
</clipPath>
</defs>
</svg>
